<svg xmlns="http://www.w3.org/2000/svg" fill="none" data-dom="letter" style="translate: none; rotate: none; scale: none; transform: translate(0px, 0px);" viewBox="292.37 3.89 93.04 164.91">
    <g data-dom="letterInner" class="">
      <path class="c-header_logo_letter" d="M336.214 4.33764C338.798 3.80517 341.469 3.81256 344.094 4.04182C350.112 5.15483 356.271 7.68406 360.117 12.6945C364.726 19.3503 368.04 26.901 369.765 34.8326C370.855 38.7448 371.949 42.6607 372.731 46.6542C373.788 50.7623 374.445 54.9703 375.839 58.986C377.01 62.5728 377.781 66.2631 378.566 69.9534C380.603 77.0715 380.57 84.5446 381.895 91.7995C382.229 94.277 382.328 96.7877 382.794 99.2504C383.3 102.027 383.242 104.86 383.605 107.652C384.295 111.712 385.22 115.764 385.209 119.906C385.495 124.084 385.312 128.274 385.407 132.456C385.392 138.661 384.735 144.847 383.653 150.948C382.669 154.753 381.212 158.495 378.915 161.697C377.186 164.031 374.768 165.78 372.144 166.959C368.257 168.298 364.033 168.819 359.966 168.116C358.704 167.847 357.772 166.874 356.696 166.234C354.34 164.581 351.694 163.25 349.749 161.076C346.633 157.312 345.837 152.316 344.152 147.853C342.783 144.399 342.629 140.631 341.649 137.074C338.655 137.333 335.656 137.466 332.676 137.84C332.999 142.954 332.79 148.145 331.582 153.141C330.83 155.618 330.214 158.181 328.892 160.433C327.167 163.509 324.415 165.946 321.255 167.451C319.703 168.002 318.117 168.49 316.495 168.764C313.276 168.967 310.05 168.283 307.07 167.096C304.362 165.976 302.208 163.849 300.512 161.498C297.947 158.133 295.653 154.494 294.258 150.471C293.062 146.052 292.46 141.478 292.39 136.9C292.266 133.439 292.779 129.993 292.644 126.536C292.816 120.908 293.128 115.276 293.634 109.674C294.706 103.876 295.018 97.9858 295.741 92.1471C296.046 89.0558 296.504 85.9793 296.743 82.8806C297.279 78.2252 298.083 73.6105 298.688 68.9625C299.209 63.5638 300.395 58.2391 302.009 53.0697C303.026 49.9341 303.639 46.6875 304.641 43.5555C305.83 40.5086 306.509 37.2842 307.926 34.326C310.142 29.6263 312.726 25.1114 315.115 20.5003C316.289 18.0931 318.073 16.1 319.871 14.1624C323.035 10.143 327.6 7.59901 332.115 5.41737C333.362 4.69631 334.827 4.60387 336.214 4.33764ZM338.31 54.9297C338.111 60.247 336.64 65.4053 336.273 70.7078C335.491 76.2395 334.408 81.7232 333.851 87.2883C333.517 90.9305 332.54 94.5395 332.676 98.2113C335.319 98.6513 337.774 97.4644 340.328 97.0465C340.974 96.9134 341.803 96.8062 342.108 96.111C342.776 94.1143 342.787 91.9844 342.959 89.91C343.279 85.983 343.033 82.0154 342.328 78.1476C342.277 74.1873 341.066 70.3861 340.802 66.4517C340.148 62.5765 339.014 58.7975 338.31 54.9297Z" fill="black" style="translate: none; rotate: none; scale: none; transform-origin: 0px 0px;" data-svg-origin="338.8887634277344 86.34649729728699" transform="matrix(1,0,0,1,0,0)"/>
    </g>
  </svg>