<svg xmlns="http://www.w3.org/2000/svg" fill="none" data-dom="letter" style="translate: none; rotate: none; scale: none; transform: translate(0px, 0px);" viewBox="177.52 5.53 108.77 163.3">
    <g data-dom="letterInner" class="">
      <path class="c-header_logo_letter" d="M235.212 5.87197C239.549 5.4985 243.942 5.29882 248.262 5.99769C251.646 6.59302 255.191 6.59672 258.388 7.99815C262.091 9.60295 266.142 10.6346 269.35 13.2082C271.919 15.1569 274.007 17.6418 276.418 19.7753C277.582 21.0584 278.984 22.1234 280.03 23.5174C282.246 26.96 283.351 31.0755 283.359 35.1726C283.362 39.388 283.168 43.6071 282.694 47.8003C282.43 51.8603 280.778 55.6431 279.145 59.3038C274.888 67.032 266.308 72.3715 257.456 72.0831C255.268 72.0461 253.026 72.0942 250.945 71.3251C249.917 70.922 248.592 70.9035 247.998 69.8275C245.62 66.5255 245.04 62.3766 243.678 58.6272C242.974 56.9817 241.212 55.9315 239.461 55.9315C238.159 55.9537 236.881 56.3568 235.766 57.0112C232.022 59.5405 229.673 63.7596 228.958 68.1968C228.69 70.6225 227.725 72.8781 227.093 75.2151C226.194 78.8758 225.064 82.4774 224.444 86.2047C223.196 91.4591 222.286 96.7838 221.618 102.142C221.398 105.451 220.763 108.761 221.089 112.085C221.533 113.982 221.801 115.99 222.855 117.672C224.796 121.026 226.778 124.465 229.692 127.072C231.519 128.455 233.934 128.651 236.147 128.591C237.843 128.713 239.388 127.43 239.894 125.848C241.37 121.913 240.702 117.565 241.931 113.571C242.335 112.059 243.157 110.706 243.575 109.197C244.284 106.368 245.796 103.761 247.785 101.657C249.903 99.7567 252.376 98.2814 254.901 97.0056C259.544 95.1272 264.847 94.421 269.669 96.0701C272.668 96.8356 274.995 98.995 277.299 100.951C279.802 103.255 282.643 105.477 283.876 108.787C285.16 112.34 286.276 116.049 286.291 119.865C286.28 124.236 285.861 128.606 285.08 132.907C284.735 135.366 283.836 137.692 282.925 139.988C281.421 143.552 278.551 146.241 276.444 149.421C274.624 152.198 272.165 154.464 269.735 156.687C267.324 158.476 264.74 160.026 262.395 161.911C258.924 164.755 254.677 166.537 250.31 167.406C246.005 168.368 241.572 168.382 237.204 168.815C229.651 168.996 222.194 167.421 214.894 165.646C211.698 164.589 208.343 163.742 205.543 161.786C202.827 159.989 200.236 158.014 197.542 156.191C194.801 154.309 192.239 152.09 190.379 149.295C185.354 142.953 183.321 134.926 181.126 127.282C180.257 122.719 178.987 118.212 178.792 113.545C178.088 105.078 176.994 96.5693 177.805 88.0683C178.143 84.5407 177.845 80.9428 178.679 77.4744C179.299 74.8786 179.468 72.2014 180.055 69.6019C181.057 65.1314 181.398 60.5241 182.756 56.1386C183.512 52.4816 184.382 48.843 185.619 45.3191C186.488 43.0709 187.821 41.0335 188.621 38.7557C189.234 37.0251 190.279 35.5054 191.223 33.9487C192.316 32.1331 193.949 30.7353 195.095 28.9531C196.096 27.4111 197.517 26.2241 198.658 24.7931C202.148 20.4077 206.655 17.0279 210.967 13.5225C214.696 10.9711 218.957 9.35151 223.306 8.24959C227.178 7.03305 231.197 6.37485 235.212 5.87197Z" fill="black" style="translate: none; rotate: none; scale: none; transform-origin: 0px 0px;" data-svg-origin="231.90452575683594 87.1807188987732" transform="matrix(1,0,0,1,0,0)"/>
    </g>
  </svg>