<svg xmlns="http://www.w3.org/2000/svg" fill="none" data-dom="letter" style="translate: none; rotate: none; scale: none; transform: translate(0px, 0px);" viewBox="0 9.12 102.6 159.71">
    <g data-dom="letterInner" class="">
      <path class="c-header_logo_letter" d="M17.2307 9.60675C23.0257 9.06688 28.861 9.53649 34.6633 9.11865C40.8803 9.32942 47.0863 9.98761 53.2189 11.0415C55.9678 11.3816 58.5918 12.3394 61.1829 13.2971C65.1979 14.7909 69.1835 16.5141 72.6884 19.0211C78.0613 23.1625 82.9204 27.9881 87.1115 33.3386C91.3834 38.7669 94.4112 45.0382 97.2261 51.3206C98.4409 53.9423 99.263 56.7192 100.169 59.4592C101.527 63.5637 101.96 67.9011 102.247 72.1941C103.039 80.4289 102.346 88.7118 101.535 96.917C101.131 101.066 100.07 105.111 99.2006 109.175C97.883 113.694 96.9325 118.334 95.1122 122.69C93.0093 128.976 89.776 134.819 86.117 140.313C82.0433 145.753 77.8704 151.236 72.5159 155.474C69.8111 157.582 67.154 159.785 64.1372 161.431C56.7715 165.565 48.5103 167.902 40.15 168.8C36.5424 168.882 32.9347 168.793 29.3454 168.434C25.3121 167.935 21.1833 167.458 17.4399 165.776C14.0268 164.367 10.588 162.758 7.89418 160.163C6.26102 157.892 4.64989 155.552 3.67366 152.904C2.20198 148.075 2.21666 142.983 1.9304 137.987C1.87168 134.031 1.20741 130.104 1.00923 126.151C0.840405 122.453 0.561484 118.767 0.330272 115.076C0.264212 109.153 -0.0220494 103.24 0.0917211 97.3201C0.495423 88.0795 -0.17619 78.8352 0.0476809 69.591C0.128421 63.5304 0.388993 57.4773 0.818385 51.4352C1.04226 46.5062 1.7102 41.603 1.73222 36.6666C2.05151 33.3423 2.42218 30.0144 2.46989 26.6754C2.45888 24.6342 3.14885 22.7003 3.55989 20.7295C3.90854 18.6255 5.11598 16.8136 6.26836 15.0757C7.64095 12.7091 10.2136 11.3558 12.7092 10.4905C14.1442 9.89147 15.7077 9.78424 17.2307 9.60675ZM40.6785 56.5159C39.416 56.9559 38.7077 58.2612 38.7921 59.5739C38.7627 63.5304 39.3242 67.4833 39.06 71.4472C38.5352 81.6751 38.1498 91.9103 37.4929 102.127C37.2433 106.816 36.5754 111.534 37.1699 116.226C37.1919 118.086 39.082 119.577 40.873 119.333C42.6383 119.185 44.2934 118.475 46.0037 118.057C48.5103 117.428 50.6242 115.871 52.6427 114.322C55.2521 112.285 57.6083 109.848 59.2304 106.93C61.1865 103.802 62.7867 100.459 63.9831 96.9651C65.7557 92.3614 65.8475 87.3584 66.3723 82.507C66.6732 80.0924 66.3282 77.6667 65.7337 75.3261C64.3905 69.5873 61.1388 64.0518 55.9494 61.0751C52.5693 59.1264 49.0021 57.3368 45.1192 56.7266C43.6585 56.538 42.1061 55.8725 40.6785 56.5159Z" fill="black" style="translate: none; rotate: none; scale: none; transform-origin: 0px 0px;" data-svg-origin="51.298450499773026 88.97344779968262" transform="matrix(1,0,0,1,0,0)"/>
    </g>
  </svg>