<svg xmlns="http://www.w3.org/2000/svg" fill="none" data-dom="letter" style="translate: none; rotate: none; scale: none; transform: translate(0px, 0px);" viewBox="109.95 7.08 63.77 161.92">
    <g data-dom="letterInner" class="">
      <path class="c-header_logo_letter" d="M130.355 8.52315C134.958 6.78893 139.945 7.04777 144.768 7.1587C148.416 7.4841 151.986 8.43811 155.458 9.5844C157.539 10.3905 159.793 10.9304 161.569 12.3577C164.12 14.3323 167.022 15.926 169.026 18.5292C172.021 21.5095 172.564 26.0022 172.634 30.0364C172.528 35.8159 171.665 41.895 168.344 46.7648C166.604 49.2867 164.42 51.6088 161.598 52.8845C157.833 54.6742 153.576 54.4487 149.524 54.5929C146.302 54.8074 143.076 54.7186 139.85 54.726C139.831 56.7228 140.055 58.7084 140.03 60.7089C139.824 64.3881 139.45 68.0784 139.802 71.7613C143.817 72.0572 147.843 72.2494 151.843 72.7301C155.33 73.2885 159.176 73.8394 161.8 76.4611C163.525 78.8572 165.481 81.1683 166.443 84.0192C167.749 87.1697 167.547 90.6492 167.478 93.9883C167.074 99.9046 164.387 106.146 159.044 109.116C155.117 110.82 150.801 111.297 146.591 111.826C144.426 112.159 142.235 112.24 140.048 112.259C139.743 115.184 140.419 118.112 140.459 121.044C140.69 123.722 140.43 126.45 140.962 129.098C146.775 128.676 152.662 128.166 158.468 128.943C161.316 129.549 164.387 130.185 166.593 132.245C168.714 134.216 170.979 136.327 171.727 139.252C172.612 142.469 173.478 145.734 173.713 149.077C173.713 153.126 173.324 157.382 171.181 160.917C169.162 163.198 166.454 164.751 163.73 166.031C159.947 167.469 155.935 168.249 151.909 168.571C148.57 168.993 145.193 169.122 141.835 168.878C136.668 168.904 131.464 168.708 126.395 167.606C122.773 166.948 118.567 166.678 116.006 163.649C114.09 161.246 112.42 158.584 111.403 155.666C110.06 152.161 110.251 148.322 110.339 144.632C110.739 140.953 110.394 137.244 110.717 133.561C110.812 126.521 111.051 119.488 111.491 112.462C111.642 110.491 111.304 108.524 111.348 106.557C111.378 103.717 110.996 100.892 111.051 98.0557C111.069 96.6876 111.018 95.3194 110.912 93.9587C110.545 86.4597 111.091 78.9497 110.519 71.4581C110.622 67.2501 110.042 63.0606 110.174 58.8526C110.156 50.115 109.337 41.2811 110.912 32.6248C111.745 29.0011 112.629 25.3625 114.082 21.9347C116.05 18.2407 118.248 14.3323 122.006 12.2283C124.67 10.7492 127.526 9.64726 130.355 8.52315Z" fill="black" style="translate: none; rotate: none; scale: none; transform-origin: 0px 0px;" data-svg-origin="141.82912063598633 88.03866577148438" transform="matrix(1,0,0,1,0,0)"/>
    </g>
  </svg>