<svg xmlns="http://www.w3.org/2000/svg" fill="none" data-dom="letter" style="translate: none; rotate: none; scale: none; transform: translate(0px, 0px);" viewBox="464.57 3.65 88.1 165.18">
    <g data-dom="letterInner" class="">
      <path class="c-header_logo_letter" d="M519.095 6.36744C524.772 3.15044 531.584 3.30204 537.845 4.21168C541.647 4.6554 545.622 6.25651 547.798 9.59184C549.941 12.3318 550.763 15.8521 550.885 19.2798C551.215 25.2368 549.758 31.094 549.629 37.0399C549.651 38.7889 549.193 40.4936 549.068 42.2352C548.895 46.4173 549.365 50.592 549.42 54.7741C549.798 59.962 549.541 65.1647 549.662 70.36C550.253 76.8679 549.861 83.4314 550.371 89.9467C550.407 96.8614 551.373 103.732 551.494 110.643C551.692 113.59 552.004 116.53 552.129 119.484C552.943 126.743 552.643 134.057 552.474 141.345C552.198 146.651 552.253 152.061 550.756 157.204C549.949 160.022 548.136 162.425 546.04 164.407C541.86 167.465 536.575 168.22 531.566 168.704C527.837 168.819 523.815 169.244 520.412 167.369C517.319 165.543 515.179 162.392 513.942 159.061C513.296 156.413 513.025 153.691 512.65 151C512.012 146.285 512.584 141.545 513.006 136.845C513.509 132.33 513.601 127.778 513.384 123.245C513.124 120.538 512.882 117.546 511.05 115.394C509.689 113.815 507.446 114.366 505.725 114.888C503.706 115.398 502.539 117.373 501.985 119.251C500.95 122.32 501.413 125.593 501.284 128.769C501.148 132.929 501.978 137.026 502.481 141.138C503.512 145.035 504.239 149.117 503.714 153.155C503.248 156.89 501.556 160.455 498.954 163.161C496.998 165.154 494.425 166.449 491.716 167.022C489.753 167.584 487.694 167.343 485.69 167.48C481.874 167.521 477.833 167.658 474.376 165.761C471.553 164.748 469.421 162.514 467.638 160.177C466.155 158.225 465.237 155.903 464.698 153.529C464.445 149.709 464.536 145.849 465.289 142.088C465.81 139.455 465.575 136.756 465.993 134.116C466.335 129.501 466.426 124.864 466.261 120.238C466.236 117.89 466.555 115.553 466.511 113.205C466.485 108.276 466.437 103.336 467.006 98.4293C467.116 93.7332 466.992 89.0297 467.168 84.3336C467.494 81.0204 467.3 77.6851 467.414 74.3646C468.14 66.274 467.979 58.1316 467.832 50.0189C467.502 47.7966 466.815 45.626 466.87 43.3519C466.65 35.3279 464.735 27.2558 466.302 19.2613C466.588 15.9297 467.854 12.6794 469.99 10.1058C470.772 9.19249 471.465 8.11276 472.599 7.60617C476.02 5.90523 479.76 4.9919 483.481 4.23756C486.953 4.16361 490.458 4.53708 493.797 5.54285C496.598 6.4303 499.269 8.09797 500.855 10.6531C503.127 13.8923 504.073 17.9302 504.011 21.8608C504.029 24.5823 503.927 27.326 504.385 30.0217C504.661 31.4971 504.305 32.9835 504.338 34.47C504.253 36.6665 504.492 38.8555 504.719 41.0408C504.367 46.3729 505.061 51.6976 505.178 57.0297C505.281 59.2336 505.593 61.7443 507.38 63.2567C508.353 64.1478 509.769 63.7226 510.962 63.7928C513.153 59.411 513.304 54.3785 512.826 49.5936C512.283 45.0492 512.14 40.4677 511.744 35.9084C511.553 32.8282 510.925 29.7887 510.911 26.6974C510.764 22.2343 510.907 17.627 512.573 13.4301C513.994 10.4941 516.185 7.8872 519.095 6.36744Z" fill="black" style="translate: none; rotate: none; scale: none; transform-origin: 0px 0px;" data-svg-origin="508.62078857421875 86.23622751235962" transform="matrix(1,0,0,1,0,0)"/>
    </g>
  </svg>