<svg xmlns="http://www.w3.org/2000/svg" fill="none" data-dom="letter" style="translate: none; rotate: none; scale: none; transform: translate(0px, 0px);" viewBox="562.39 7.5 81.26 161.39">
    <g data-dom="letterInner" class="">
      <path class="c-header_logo_letter" d="M590.275 7.87626C597.02 6.94813 604.54 7.51388 610.115 11.8402C612.493 13.567 614.042 16.1258 615.583 18.5848C618.659 23.6581 619.11 29.763 619.426 35.5536C619.477 40.2534 618.714 44.9088 618.347 49.5864C617.627 54.8002 616.527 59.9585 615.936 65.1907C615.484 70.2714 614.053 75.1856 613.242 80.2108C611.869 86.423 611.253 92.7941 609.502 98.9212C608.375 101.794 607.858 104.852 606.981 107.803C606.03 111.153 604.749 114.507 604.896 118.049C607.102 117.169 609.22 116.064 611.484 115.321C618.512 112.688 626.406 113.542 633.328 116.108C638.345 118.035 642.206 122.66 643.057 128.022C643.831 131.668 643.688 135.429 643.501 139.13C642.958 143.519 641.809 147.901 639.552 151.732C636.602 156.923 631.819 160.928 626.428 163.343C621.874 165.676 616.816 166.571 611.935 167.906C606.507 169.03 600.878 169.226 595.402 168.268C591.321 167.403 587.108 166.656 583.474 164.467C580.869 162.914 578.27 161.357 575.745 159.686C573.048 157.87 571.051 155.226 569.293 152.527C567.55 149.369 565.722 146.189 564.765 142.684C564.082 139.027 563.12 135.395 563.073 131.653C562.251 127.039 562.397 122.328 562.397 117.657C562.709 113.228 562.702 108.764 563.37 104.372C563.418 101.517 564.038 98.7215 564.108 95.8706C564.383 88.9337 565.403 82.056 565.899 75.1375C565.814 70.8038 567.066 66.5995 567.345 62.2954C567.579 58.668 568.346 55.1108 568.629 51.4944C568.926 47.9853 569.925 44.5982 570.347 41.1112C570.754 38.1346 571.253 35.1727 571.833 32.2257C572.644 27.7847 574.219 23.5434 575.661 19.2837C576.751 15.8633 579.323 13.1825 582.113 11.0637C584.451 9.21113 587.331 8.17947 590.275 7.87626Z" fill="black" style="translate: none; rotate: none; scale: none; transform-origin: 0px 0px;" data-svg-origin="603.017822265625 88.18840599060059" transform="matrix(1,0,0,1,0,0)"/>
    </g>
  </svg>