<svg width="960" height="169" viewBox="0 0 960 169" fill="none" xmlns="http://www.w3.org/2000/svg" data-dom="letter" style="translate: none; rotate: none; scale: none; transform: translate(0px, 0px);">
    <g data-dom="letterInner" class="">
      <path class="c-header_logo_letter" d="M878.059 8.65274C882.46 8.41239 886.875 8.64904 891.279 8.40869C896.989 8.42348 902.682 9.06319 908.326 9.89517C911.027 10.3278 913.754 10.7419 916.338 11.7033C920.885 13.3008 925.406 15.1089 929.462 17.7602C934.211 21.273 938.461 25.4366 942.362 29.8776C946.916 35.0692 950.381 41.126 953.229 47.4121C954.572 50.2224 955.845 53.077 956.748 56.0684C957.919 59.3853 958.91 62.7909 959.204 66.3148C960.514 76.3614 960.059 86.5486 958.921 96.5879C958.473 100.593 957.526 104.516 956.645 108.443C955.515 112.259 954.704 116.171 953.328 119.913C951.911 123.699 950.594 127.549 948.608 131.084C947.056 134.123 945.257 137.033 943.356 139.866C939.562 144.858 935.734 149.924 930.889 153.943C928.522 155.918 926.071 157.789 923.535 159.534C916.833 163.642 909.291 166.275 901.551 167.491C897.426 168.312 893.195 168.116 889.025 167.858C885.003 167.525 880.951 167.077 877.083 165.876C873.52 164.511 869.923 163.039 866.858 160.714C864.891 159.323 863.779 157.108 862.509 155.126C860.385 151.636 860.146 147.468 859.64 143.516C859.5 138.904 859.313 134.29 858.814 129.701C858.315 125.467 858.388 121.192 857.926 116.959C857.239 104.76 857.83 92.5352 857.573 80.3217C857.137 74.165 857.654 68.0009 857.647 61.8332C857.57 58.9859 858.065 56.1683 858.127 53.3247C858.318 48.392 858.861 43.4814 859.111 38.5487C859.206 34.4775 859.838 30.4433 859.874 26.3685C859.9 24.2016 860.506 22.142 860.99 20.0528C861.386 17.5938 862.902 15.5416 864.26 13.5263C865.001 12.2987 866.341 11.6886 867.475 10.8899C870.675 9.02991 874.448 8.79325 878.059 8.65274ZM898.634 55.5877C897.753 55.78 896.982 56.3753 896.527 57.1445C896.109 58.2686 896.149 59.5073 896.2 60.698C896.729 66.2223 896.479 71.7874 896.182 77.3192C895.653 86.8334 895.393 96.3623 894.626 105.865C894.398 109.149 894.27 112.466 894.641 115.746C894.773 117.199 896.042 118.371 897.474 118.508C899.437 118.745 901.28 117.816 903.159 117.388C906.263 116.629 908.829 114.622 911.247 112.614C913.438 110.758 915.369 108.565 916.76 106.036C919.112 102.334 920.822 98.263 922.144 94.0882C922.757 91.9953 922.929 89.8063 923.267 87.6616C923.546 83.694 924.408 79.6413 923.432 75.7033C922.276 69.7869 919.193 63.9445 914 60.6943C910.579 58.6494 906.964 56.7562 903.012 56.061C901.57 55.7874 900.102 55.3585 898.634 55.5877Z" fill="black" style="translate: none; rotate: none; scale: none; transform-origin: 0px 0px;" data-svg-origin="908.699462890625 88.24520778656006" transform="matrix(1,0,0,1,0,0)"/>
    </g>
  </svg>