<svg width="960" height="169" viewBox="0 0 960 169" fill="none" xmlns="http://www.w3.org/2000/svg" data-dom="letter" style="translate: none; rotate: none; scale: none; transform: translate(0px, 0px);">
    <g data-dom="letterInner" class="">
      <path class="c-header_logo_letter" d="M690.881 4.87735C695.531 3.86787 700.563 3.21708 705.135 4.90323C710.582 6.31206 715.933 9.41813 718.828 14.4211C722.821 20.6185 725.739 27.5221 727.302 34.7437C728.293 38.4599 729.435 42.1428 730.125 45.9293C731.244 50.4664 732.073 55.0774 733.549 59.5221C734.745 63.1754 735.475 66.9545 736.294 70.7076C737.626 75.3889 737.982 80.2699 738.507 85.0954C738.856 88.5232 739.604 91.9029 739.839 95.3491C739.942 96.7469 740.144 98.1409 740.386 99.5276C740.892 102.438 740.79 105.414 741.278 108.324C741.993 112.27 742.834 116.219 742.819 120.25C742.871 126.177 743.017 132.108 742.797 138.035C742.423 142.687 741.986 147.368 740.962 151.928C739.832 155.625 738.456 159.368 735.92 162.34C734.18 164.459 731.886 166.083 729.358 167.096C725.702 168.249 721.797 168.789 717.992 168.187C716.41 168.061 715.283 166.815 713.984 166.049C711.129 164.078 707.785 162.444 706.031 159.29C703.807 155.474 702.999 151.051 701.377 146.98C700.379 143.767 700.023 140.395 699.271 137.122C696.228 137.229 693.19 137.525 690.162 137.839C690.683 142.084 690.312 146.392 689.681 150.604C688.778 154.734 687.769 159.038 685.126 162.433C682.224 166.238 677.618 168.623 672.872 168.811C668.072 168.664 662.949 167.262 659.682 163.502C656.746 160.018 654.199 156.165 652.357 151.983C650.085 145.509 649.766 138.535 650.074 131.731C650.386 129.142 650.192 126.532 650.272 123.932C650.548 119.381 650.713 114.825 651.124 110.284C651.847 105.507 652.551 100.711 652.852 95.8816C653.652 90.0836 654.03 84.2338 654.908 78.4432C655.289 75.2151 655.906 72.0203 656.247 68.7885C656.831 63.1902 658.093 57.6806 659.8 52.3263C660.827 48.991 661.422 45.5299 662.666 42.2649C663.139 40.9707 663.547 39.658 663.903 38.3268C665.573 33.431 668.226 28.9679 670.612 24.4086C672.226 21.432 673.603 18.2446 675.981 15.7782C677.379 14.3472 678.535 12.6869 680.055 11.3742C683.277 8.61943 687.039 6.60048 690.881 4.87735ZM695.212 61.0529C694.188 66.1484 693.843 71.3399 692.955 76.4576C691.949 81.8821 691.501 87.388 690.65 92.8347C690.437 94.617 690.099 96.3956 690.198 98.2001C691.556 98.2555 692.98 98.4035 694.294 97.9191C696.023 97.3385 697.869 97.1758 699.579 96.5139C700.845 91.6108 700.775 86.4599 700.412 81.4458C700.089 79.608 699.796 77.7665 699.704 75.9029C699.634 73.259 698.713 70.7409 698.57 68.1081C698.188 63.523 696.342 59.1967 696.071 54.6115C695.535 56.7192 695.711 58.9341 695.212 61.0529Z" fill="black" style="translate: none; rotate: none; scale: none; transform-origin: 0px 0px;" data-svg-origin="696.4448852539062 86.33860683441162" transform="matrix(1,0,0,1,0,0)"/>
    </g>
  </svg>