<svg xmlns="http://www.w3.org/2000/svg" fill="none" data-dom="letter" style="translate: none; rotate: none; scale: none; transform: translate(0px, 0px);" viewBox="752.77 0 93.01 168.8">
    <g data-dom="letterInner" class="">
      <path class="c-header_logo_letter" d="M810.028 3.67927C812.469 1.0502 816.146 -0.192229 819.677 0.0259357C825.105 -0.192229 830.276 2.55517 833.862 6.5376C835.007 7.79852 835.619 9.42181 836.416 10.912C838.497 14.8685 839.851 19.1468 841.227 23.388C841.675 24.8154 841.715 26.3314 842.009 27.7994C842.27 29.6889 842.952 31.486 843.224 33.3756C843.683 36.1229 843.671 38.948 844.449 41.6399C844.945 45.1897 845.004 48.7913 845.562 52.3374C845.94 56.6008 845.675 60.8828 845.752 65.1573C845.745 71.8058 845.822 78.4691 845.308 85.1028C844.945 88.6822 845.341 92.2911 844.945 95.8705C844.49 100.411 844.138 104.959 843.895 109.519C843.371 115.076 842.493 120.604 842.328 126.195C841.558 132.899 840.251 139.522 839.234 146.189C838.772 149.598 837.396 152.763 836.724 156.121C836.196 158.643 835.344 161.168 833.612 163.121C832.17 164.655 830.544 166.034 828.724 167.092C824.679 169.24 819.791 169.229 815.541 167.695C812.142 166.23 809.995 163.102 807.654 160.395C803.921 155.267 801.488 149.299 799.774 143.216C798.732 138.83 798.189 134.353 797.11 129.978C795.491 124.184 793.44 118.519 791.212 112.943C791.231 115.25 791.726 117.55 791.649 119.876C791.539 122.098 791.968 124.291 792.056 126.51C792.262 130.585 792.196 134.671 792.159 138.753C791.755 143.73 792.196 148.885 790.464 153.658C789.608 157.349 787.788 160.784 785.443 163.731C783.369 165.946 780.83 167.835 777.901 168.712C775.354 168.863 772.73 168.933 770.278 168.116C767.974 167.281 765.493 166.63 763.702 164.844C761.404 163.176 759.566 160.909 758.377 158.325C757.279 153.788 755.477 149.365 755.386 144.636C753.873 134.615 754.384 124.454 754.251 114.355C754.292 109.781 753.943 105.218 753.976 100.648C753.991 98.5365 753.653 96.451 753.584 94.347C753.323 91.766 753.598 89.174 753.437 86.5893C752.618 77.748 752.919 68.855 752.772 59.9843C752.78 58.2611 752.721 56.5343 752.853 54.8149C752.982 51.1948 752.769 47.5415 753.455 43.9658C753.94 41.7361 753.598 39.4583 753.837 37.2101C754.325 32.3698 753.587 27.4296 754.736 22.6559C755.283 20.7479 755.756 18.8103 756.413 16.9392C757.731 14.4581 758.696 11.7588 760.469 9.54753C762.861 6.41188 766.289 4.01576 770.15 3.17268C774.638 2.62912 779.534 3.25773 783.215 6.10127C788.83 10.3573 792.291 16.8431 794.699 23.3585C796.413 27.1597 797.312 31.2679 798.226 35.3205C799.888 41.762 801.382 48.2514 803.444 54.5819C803.316 50.3961 801.808 46.4285 801.47 42.2685C800.648 36.7442 800.927 31.1532 800.934 25.5919C801.554 20.5926 802.56 15.5415 804.887 11.0377C806.013 8.21266 807.999 5.8831 810.028 3.67927Z" fill="black" style="translate: none; rotate: none; scale: none; transform-origin: 0px 0px;" data-svg-origin="799.2685241699219 84.40386962890625" transform="matrix(1,0,0,1,0,0)"/>
    </g>
  </svg>