<svg xmlns="http://www.w3.org/2000/svg" fill="none" data-dom="letter" style="translate: none; rotate: none; scale: none; transform: translate(0px, 0px);" viewBox="382.62 4.88 76.52 164.11">
    <g data-dom="letterInner" class="">
      <path class="c-header_logo_letter" d="M397.258 7.45102C405.31 4.91069 413.872 4.47066 422.239 5.18432C427.484 5.50972 432.706 6.04219 437.936 6.55247C441.39 6.79282 444.762 7.73204 448.032 8.84505C451.765 10.7716 455.148 13.7445 456.892 17.653C459.039 21.2324 459.13 25.5809 459.141 29.641C458.896 32.3773 459.174 35.2023 458.257 37.8351C457.49 40.9818 456.451 44.2543 453.956 46.4618C449.06 50.925 442.248 52.2266 435.862 52.5852C435.851 56.7821 436.417 60.9568 436.413 65.1574C436.336 69.9829 437.378 74.7456 437.286 79.5711C437.415 82.2852 437.624 84.9993 437.756 87.7171C438.868 96.6656 438.809 105.706 439.606 114.685C439.639 125.297 441.188 135.861 440.622 146.485C440.428 149.632 440.703 152.808 440.322 155.947C439.672 158.521 438.824 161.235 436.809 163.073C434.2 165.872 430.581 167.336 426.952 168.242C423.384 169.311 419.571 169.118 415.964 168.349C413.259 167.717 410.569 166.659 408.492 164.751C405.313 162.089 404.124 157.829 403.482 153.877C403.089 150.759 402.957 147.616 402.649 144.495C402.241 133.443 403.001 122.402 403.563 111.371C404.363 102.393 403.13 93.3857 403.831 84.404C403.849 78.4581 404.623 72.5528 404.689 66.6106C404.741 63.2975 404.656 59.9806 404.932 56.6786C405.067 54.8741 405.262 53.0733 405.24 51.2688C401.885 50.692 398.472 50.3999 395.199 49.4533C391.576 48.4327 388.501 45.922 386.339 42.875C383.722 39.9058 382.508 35.8309 382.629 31.9003C382.559 27.8513 383.264 23.8245 384.357 19.9419C385.29 16.821 387.499 14.3361 389.796 12.1397C391.943 10.1023 394.446 8.40133 397.258 7.45102Z" fill="black" style="translate: none; rotate: none; scale: none; transform-origin: 0px 0px;" data-svg-origin="420.8808898925781 86.93103504180908" transform="matrix(1,0,0,1,0,0)"/>
    </g>
  </svg>